<svg width="1920" height="3925" viewBox="0 0 1920 3925" fill="none" xmlns="http://www.w3.org/2000/svg">
<rect y="5" width="1920" height="3919.8" fill="#D9D9D9" fill-opacity="0.06"/>
<path d="M825.105 1374.78C641.836 1483.24 453.701 1553.73 310.468 1553.73C-93.9697 1553.73 18.8563 1038.28 528.309 1068.21C736.879 1080.46 822.312 1206.1 825.105 1374.78C829.133 1618.12 661.18 1951.02 442.822 2162.3C146.939 2448.58 496.394 3192.78 1020.55 3208.09C841.533 2841.08 884.681 2425.62 1134.97 2260.16C1586.27 1961.82 2165.59 2537.13 1438.29 3064.93C1293.04 3170.34 1151.36 3211.92 1020.55 3208.09C496.394 3192.78 146.939 2448.58 442.822 2162.3C661.18 1951.02 829.133 1618.12 825.105 1374.78Z" fill="#D9D9D9" fill-opacity="0.06"/>
<path d="M1170.12 59.1523C1272.53 108.718 1477.35 286.237 1477.35 599.784C1477.35 991.719 714.906 1553.73 310.468 1553.73C-93.9697 1553.73 18.8563 1038.28 528.309 1068.21C1037.76 1098.13 812.544 1804.57 442.822 2162.3C73.0999 2520.03 711.001 3592.74 1438.29 3064.93C2165.59 2537.13 1586.27 1961.82 1134.97 2260.16C683.662 2558.51 905.842 3669.7 1889.6 3844.05" stroke="black" stroke-width="130"/>
</svg>
